<svg width="" height="" viewBox="0 0 32 32" fill="none" xmlns="http://www.w3.org/2000/svg">
<path fill-rule="evenodd" clip-rule="evenodd" d="M19.2817 26.7673L26.1252 20.5528C26.7518 21.4167 27.0582 22.475 26.9909 23.5433C26.932 24.7821 26.3881 25.9467 25.4786 26.7814C24.5691 27.6161 23.3683 28.0525 22.14 27.9949C21.0757 27.932 20.0663 27.4971 19.2854 26.765L19.2817 26.7673ZM18.1741 25.6292L25.0656 19.3714L25.4326 19.7834L18.5418 26.0404L18.1741 25.6292ZM15.6709 6.41485C15.6773 6.15032 15.739 5.89014 15.852 5.65132C15.965 5.4125 16.1267 5.20043 16.3265 5.02897C16.6984 4.68108 17.1892 4.49166 17.6964 4.50028C18.2036 4.50891 18.6878 4.71491 19.0479 5.07524L23.3986 15.9011L16.1822 7.81715C16.0054 7.63246 15.8686 7.41267 15.7806 7.17176C15.6926 6.93085 15.6552 6.6741 15.6709 6.41784V6.41485ZM11.9462 9.74859C11.957 9.49183 12.0208 9.24016 12.1334 9.00964C12.246 8.77912 12.405 8.5748 12.6003 8.40972C12.9931 8.05359 13.51 7.86928 14.0375 7.89727C14.5649 7.92526 15.0598 8.16325 15.4134 8.55898L24.2354 18.4408L21.2758 21.1297L12.456 11.1957C12.2749 11.0042 12.1358 10.7764 12.048 10.527C11.9601 10.2776 11.9254 10.0124 11.9462 9.74859ZM8.21998 13.1331C8.23106 12.8764 8.29485 12.6249 8.40732 12.3945C8.51978 12.164 8.67847 11.9596 8.87333 11.7942C9.26662 11.4389 9.78338 11.255 10.3107 11.2829C10.8379 11.3107 11.3328 11.5479 11.6872 11.9427L20.5092 21.8253L17.5496 24.5157L8.81857 14.6824L8.72682 14.5794C8.54623 14.3878 8.40759 14.16 8.31989 13.9108C8.23219 13.6616 8.1974 13.3967 8.21776 13.1331H8.21998ZM4.954 17.9131C4.62972 17.5106 4.46918 16.9989 4.5049 16.4815C4.54062 15.9641 4.76992 15.4797 5.14638 15.1264C5.55234 14.7999 6.06289 14.6348 6.58142 14.6623C7.09995 14.6898 7.59051 14.908 7.96027 15.2757L8.41976 15.7899L15.5873 23.8701L4.954 17.9131Z" fill="#161616"/>
</svg>
