<svg width="32" height="37" viewBox="0 0 32 37" fill="none" xmlns="http://www.w3.org/2000/svg">
<g clip-path="url(#clip0_709_5952)">
<path fill-rule="evenodd" clip-rule="evenodd" d="M8.12882 21.2804L7.3083 20.4599C5.85381 18.7811 5.06948 16.6315 5.10979 14.4343C5.1501 12.2372 6.01214 10.1519 7.52611 8.58912L8.37164 7.74359C9.92436 6.21073 12.0128 5.33576 14.216 5.2951C16.4192 5.25444 18.5732 6.05112 20.2437 7.5245L21.2329 8.1763L21.751 8.69438C22.4392 9.38686 23.0101 10.1863 23.4406 11.0601L11.012 23.4887C9.90853 22.9636 8.92591 22.2103 8.12882 21.2804ZM12.7976 30.8537C13.2445 31.2992 13.8461 31.553 14.4706 31.5595C15.0951 31.5659 15.6916 31.3246 16.1293 30.8882C16.5665 30.451 16.8085 29.8544 16.802 29.2296C16.7956 28.6047 16.5411 28.003 16.0947 27.5566C15.6484 27.1102 15.0466 26.8558 14.4217 26.8493C13.7969 26.8428 13.2003 27.0848 12.7631 27.522C12.3267 27.9597 12.0854 28.5562 12.0919 29.1807C12.0983 29.8052 12.3521 30.4068 12.7976 30.8537ZM23.921 12.2167C24.329 13.4244 24.4633 14.7024 24.3139 15.9572C24.1646 17.2119 23.7355 18.4114 23.058 19.4677L27.3258 23.3144C27.9734 23.962 28.1532 24.7316 27.6457 25.239L25.1935 27.6913C24.6873 28.1974 23.9171 28.0183 23.2695 27.3707L19.4228 23.1029C18.3663 23.7799 17.1668 24.2088 15.9122 24.3581C14.6575 24.5075 13.3795 24.3735 12.1718 23.9659L23.921 12.2167Z" fill="#161616"/>
</g>
<defs>
<clipPath id="clip0_709_5952">
<rect width="32" height="37" fill="white" transform="matrix(-1 0 0 1 32 0)"/>
</clipPath>
</defs>
</svg>
