<svg width="" height="" viewBox="0 0 32 32" fill="none" xmlns="http://www.w3.org/2000/svg">
<path d="M12.667 4.66602C8.24875 4.66602 4.66699 8.24778 4.66699 12.666C4.66699 17.0843 8.24875 20.666 12.667 20.666H19.3339L25.3339 26.666C25.7556 27.0878 26.0088 27.3329 26.5422 27.3329C26.7086 27.3329 26.9172 27.3329 27.1256 27.1246C27.3336 26.9163 27.3336 26.708 27.3336 26.5412C27.3336 26.0078 27.0433 25.7092 26.667 25.3329L20.667 19.3329V12.666C20.667 8.24778 17.0852 4.66602 12.667 4.66602ZM19.3339 15.3329V19.3329H15.3339L19.3339 15.3329ZM6.66699 20.666C6.13656 20.666 5.62785 20.8767 5.25278 21.2518C4.87771 21.6269 4.66699 22.1356 4.66699 22.666C4.66699 23.1964 4.87771 23.7051 5.25278 24.0802C5.62785 24.4553 6.13656 24.666 6.66699 24.666C7.19743 24.666 7.70613 24.4553 8.08121 24.0802C8.45628 23.7051 8.66699 23.1964 8.66699 22.666C8.66699 22.1356 8.45628 21.6269 8.08121 21.2518C7.70613 20.8767 7.19743 20.666 6.66699 20.666Z" fill="#161616"/>
</svg>
