<svg width="" height="" viewBox="0 0 24 24" fill="none" xmlns="http://www.w3.org/2000/svg">
<path d="M10.5 16.5C10.3011 16.5 10.1103 16.579 9.96967 16.7197C9.82902 16.8603 9.75 17.0511 9.75 17.25V18.75C9.75 18.9489 9.82902 19.1397 9.96967 19.2803C10.1103 19.421 10.3011 19.5 10.5 19.5C10.6989 19.5 10.8897 19.421 11.0303 19.2803C11.171 19.1397 11.25 18.9489 11.25 18.75V17.25C11.25 17.0511 11.171 16.8603 11.0303 16.7197C10.8897 16.579 10.6989 16.5 10.5 16.5ZM7.5 16.5C7.30109 16.5 7.11032 16.579 6.96967 16.7197C6.82902 16.8603 6.75 17.0511 6.75 17.25V18.75C6.75 18.9489 6.82902 19.1397 6.96967 19.2803C7.11032 19.421 7.30109 19.5 7.5 19.5C7.69891 19.5 7.88968 19.421 8.03033 19.2803C8.17098 19.1397 8.25 18.9489 8.25 18.75V17.25C8.25 17.0511 8.17098 16.8603 8.03033 16.7197C7.88968 16.579 7.69891 16.5 7.5 16.5ZM13.5 16.5C13.3011 16.5 13.1103 16.579 12.9697 16.7197C12.829 16.8603 12.75 17.0511 12.75 17.25V18.75C12.75 18.9489 12.829 19.1397 12.9697 19.2803C13.1103 19.421 13.3011 19.5 13.5 19.5C13.6989 19.5 13.8897 19.421 14.0303 19.2803C14.171 19.1397 14.25 18.9489 14.25 18.75V17.25C14.25 17.0511 14.171 16.8603 14.0303 16.7197C13.8897 16.579 13.6989 16.5 13.5 16.5ZM16.5 16.5C16.3011 16.5 16.1103 16.579 15.9697 16.7197C15.829 16.8603 15.75 17.0511 15.75 17.25V18.75C15.75 18.9489 15.829 19.1397 15.9697 19.2803C16.1103 19.421 16.3011 19.5 16.5 19.5C16.6989 19.5 16.8897 19.421 17.0303 19.2803C17.171 19.1397 17.25 18.9489 17.25 18.75V17.25C17.25 17.0511 17.171 16.8603 17.0303 16.7197C16.8897 16.579 16.6989 16.5 16.5 16.5ZM21 6H3C2.60218 6 2.22064 6.15804 1.93934 6.43934C1.65804 6.72064 1.5 7.10218 1.5 7.5V14.25C1.5 14.6478 1.65804 15.0294 1.93934 15.3107C2.22064 15.592 2.60218 15.75 3 15.75H21C21.3978 15.75 21.7794 15.592 22.0607 15.3107C22.342 15.0294 22.5 14.6478 22.5 14.25V7.5C22.5 7.10218 22.342 6.72064 22.0607 6.43934C21.7794 6.15804 21.3978 6 21 6ZM18.75 13.5H5.25C5.05109 13.5 4.86032 13.421 4.71967 13.2803C4.57902 13.1397 4.5 12.9489 4.5 12.75C4.5 12.5511 4.57902 12.3603 4.71967 12.2197C4.86032 12.079 5.05109 12 5.25 12H18.75C18.9489 12 19.1397 12.079 19.2803 12.2197C19.421 12.3603 19.5 12.5511 19.5 12.75C19.5 12.9489 19.421 13.1397 19.2803 13.2803C19.1397 13.421 18.9489 13.5 18.75 13.5Z" fill=""/>
</svg>
