<svg width="24" height="24" viewBox="0 0 24 24" fill="none" xmlns="http://www.w3.org/2000/svg">
<g clip-path="url(#clip0_139_2041)">
<path d="M15.7045 10.4545C16.1438 10.0152 16.8562 10.0152 17.2955 10.4545L21.7955 14.9545C22.2348 15.3938 22.2348 16.1062 21.7955 16.5455L17.2955 21.0455C16.8562 21.4848 16.1438 21.4848 15.7045 21.0455C15.2652 20.6062 15.2652 19.8938 15.7045 19.4545L19.409 15.75L15.7045 12.0455C15.2652 11.6062 15.2652 10.8938 15.7045 10.4545Z" fill="#161616"/>
<path d="M1.875 10.5C1.875 8.80925 2.54667 7.18776 3.74222 5.99222C4.93776 4.79667 6.55925 4.125 8.25 4.125H16.5C17.1213 4.125 17.625 4.62868 17.625 5.25C17.625 5.87132 17.1213 6.375 16.5 6.375H8.25C7.15598 6.375 6.10681 6.80963 5.33322 7.58322C4.55963 8.35681 4.125 9.40598 4.125 10.5C4.125 11.0417 4.23173 11.5781 4.43903 12.0786C4.64633 12.579 4.95018 13.0337 5.33322 13.4168C5.71626 13.7998 6.17098 14.1037 6.67145 14.311C7.17191 14.5183 7.7083 14.625 8.25 14.625H21C21.6213 14.625 22.125 15.1287 22.125 15.75C22.125 16.3713 21.6213 16.875 21 16.875H8.25C7.41283 16.875 6.58384 16.7101 5.81039 16.3898C5.03695 16.0694 4.33419 15.5998 3.74222 15.0078C3.15025 14.4158 2.6806 13.7131 2.36023 12.9396C2.03986 12.1662 1.875 11.3372 1.875 10.5Z" fill="#161616"/>
</g>
<defs>
<clipPath id="clip0_139_2041">
<rect width="24" height="24" fill="white"/>
</clipPath>
</defs>
</svg>
