<svg width="16" height="8" viewBox="0 0 16 8" fill="none" xmlns="http://www.w3.org/2000/svg">
<g clip-path="url(#clip0_78_2541)">
<path fill-rule="evenodd" clip-rule="evenodd" d="M0.233564 0.266202C-0.0784372 0.560747 -0.0784372 1.03701 0.233564 1.33083L6.84476 7.55846C6.99049 7.69786 7.16589 7.80896 7.36028 7.88481C7.55468 7.96066 7.76401 7.99951 7.97556 7.99951C8.1871 7.99951 8.39644 7.96066 8.59084 7.88481C8.78524 7.80896 8.96062 7.69786 9.10635 7.55846L15.7664 1.28573C16.0744 0.994825 16.0784 0.523479 15.7744 0.228206C15.7019 0.156814 15.614 0.0998716 15.5163 0.0605921C15.4185 0.0213127 15.313 0.000549733 15.2061 -0.000132153C15.0992 -0.000813563 14.9933 0.0183024 14.895 0.0563311C14.7966 0.0943593 14.7079 0.150644 14.6344 0.221104L8.54075 5.96116C8.46788 6.03092 8.38016 6.08655 8.28293 6.12451C8.18569 6.16247 8.08098 6.18204 7.97515 6.18204C7.86933 6.18204 7.76462 6.16247 7.66739 6.12451C7.57015 6.08655 7.48242 6.03092 7.40955 5.96116L1.36396 0.266912C1.29116 0.197174 1.2035 0.141511 1.10633 0.10356C1.00916 0.0656091 0.904519 0.0460316 0.798761 0.0460316C0.693004 0.0460316 0.58835 0.0656091 0.491181 0.10356C0.394011 0.141511 0.306364 0.196464 0.233564 0.266202Z" fill="black"/>
</g>
<defs>
<clipPath id="clip0_78_2541">
<rect width="16" height="8" fill="white" transform="translate(16 8) rotate(-180)"/>
</clipPath>
</defs>
</svg>
