<svg width="24" height="24" viewBox="0 0 24 24" fill="none" xmlns="http://www.w3.org/2000/svg">
<path d="M1.5 3H4.5V1.5C4.5 1.10218 4.65804 0.720644 4.93934 0.43934C5.22064 0.158035 5.60218 0 6 0C6.39782 0 6.77936 0.158035 7.06066 0.43934C7.34196 0.720644 7.5 1.10218 7.5 1.5V3H16.5V1.5C16.5 1.10218 16.658 0.720644 16.9393 0.43934C17.2206 0.158035 17.6022 0 18 0C18.3978 0 18.7794 0.158035 19.0607 0.43934C19.342 0.720644 19.5 1.10218 19.5 1.5V3H22.5V7.5H1.5M1.5 9H22.5V22.5H1.5" fill="#161616"/>
</svg>
