<svg width="25" height="24" viewBox="0 0 25 24" fill="none" xmlns="http://www.w3.org/2000/svg">
<path d="M15.7998 11H13.7998V7C13.7998 6.73478 13.6945 6.48043 13.5069 6.29289C13.3194 6.10536 13.065 6 12.7998 6C12.5346 6 12.2802 6.10536 12.0927 6.29289C11.9052 6.48043 11.7998 6.73478 11.7998 7V12C11.7998 12.2652 11.9052 12.5196 12.0927 12.7071C12.2802 12.8946 12.5346 13 12.7998 13H15.7998C16.065 13 16.3194 12.8946 16.5069 12.7071C16.6945 12.5196 16.7998 12.2652 16.7998 12C16.7998 11.7348 16.6945 11.4804 16.5069 11.2929C16.3194 11.1054 16.065 11 15.7998 11ZM12.7998 2C10.822 2 8.8886 2.58649 7.24411 3.6853C5.59962 4.78412 4.31789 6.3459 3.56101 8.17317C2.80414 10.0004 2.6061 12.0111 2.99196 13.9509C3.37781 15.8907 4.33022 17.6725 5.72874 19.0711C7.12727 20.4696 8.9091 21.422 10.8489 21.8079C12.7887 22.1937 14.7994 21.9957 16.6266 21.2388C18.4539 20.4819 20.0157 19.2002 21.1145 17.5557C22.2133 15.9112 22.7998 13.9778 22.7998 12C22.7969 9.34874 21.7423 6.80691 19.8676 4.93219C17.9929 3.05746 15.4511 2.00295 12.7998 2ZM12.7998 20C11.2176 20 9.67084 19.5308 8.35525 18.6518C7.03965 17.7727 6.01427 16.5233 5.40877 15.0615C4.80327 13.5997 4.64485 11.9911 4.95353 10.4393C5.26221 8.88743 6.02413 7.46197 7.14295 6.34315C8.26178 5.22433 9.68724 4.4624 11.2391 4.15372C12.7909 3.84504 14.3995 4.00346 15.8613 4.60896C17.3231 5.21447 18.5725 6.23984 19.4516 7.55544C20.3306 8.87103 20.7998 10.4177 20.7998 12C20.7974 14.121 19.9537 16.1544 18.454 17.6542C16.9542 19.1539 14.9208 19.9976 12.7998 20Z" fill=""/>
</svg>
