<svg width="" height="" viewBox="0 0 24 24" fill="none" xmlns="http://www.w3.org/2000/svg">
<path d="M19.8889 6C19.8889 4.9568 19.0432 4.11111 18 4.11111H6C4.9568 4.11111 4.11111 4.9568 4.11111 6V18C4.11111 19.0432 4.9568 19.8889 6 19.8889H18C19.0432 19.8889 19.8889 19.0432 19.8889 18V6ZM21 18C21 19.6568 19.6568 21 18 21H6C4.34315 21 3 19.6568 3 18V6C3 4.34315 4.34315 3 6 3H18C19.6568 3 21 4.34315 21 6V18Z" fill="" stroke=""/>
<path d="M9 20.4156V3.58442C9 3.26165 9.21664 3 9.48387 3C9.75111 3 9.96774 3.26165 9.96774 3.58442V20.4156C9.96774 20.7383 9.75111 21 9.48387 21C9.21664 21 9 20.7383 9 20.4156ZM14.0323 20.4156V3.58442C14.0323 3.26165 14.2489 3 14.5161 3C14.7834 3 15 3.26165 15 3.58442V20.4156C15 20.7383 14.7834 21 14.5161 21C14.2489 21 14.0323 20.7383 14.0323 20.4156Z" fill="" stroke="" stroke-linecap="round"/>
</svg>
