<svg width="" height="" viewBox="0 0 24 24" fill="none" xmlns="http://www.w3.org/2000/svg">
<path d="M23.1429 3H0.857143C0.629814 3 0.411797 3.09482 0.251051 3.2636C0.0903058 3.43239 0 3.66131 0 3.9V20.1C0 20.3387 0.0903058 20.5676 0.251051 20.7364C0.411797 20.9052 0.629814 21 0.857143 21H23.1429C23.3702 21 23.5882 20.9052 23.7489 20.7364C23.9097 20.5676 24 20.3387 24 20.1V3.9C24 3.66131 23.9097 3.43239 23.7489 3.2636C23.5882 3.09482 23.3702 3 23.1429 3ZM11.1429 14.538C10.6464 14.3488 10.2175 14.0037 9.91444 13.5497C9.61133 13.0956 9.44873 12.5545 9.44873 12C9.44873 11.4455 9.61133 10.9044 9.91444 10.4503C10.2175 9.99627 10.6464 9.65118 11.1429 9.462V14.538ZM12.8571 9.462C13.3536 9.65118 13.7825 9.99627 14.0856 10.4503C14.3887 10.9044 14.5513 11.4455 14.5513 12C14.5513 12.5545 14.3887 13.0956 14.0856 13.5497C13.7825 14.0037 13.3536 14.3488 12.8571 14.538V9.462ZM1.71429 10.2H3.42857V13.8H1.71429V10.2ZM1.71429 15.6H4.28571C4.51304 15.6 4.73106 15.5052 4.89181 15.3364C5.05255 15.1676 5.14286 14.9387 5.14286 14.7V9.3C5.14286 9.06131 5.05255 8.83239 4.89181 8.6636C4.73106 8.49482 4.51304 8.4 4.28571 8.4H1.71429V4.8H11.1429V7.59C10.174 7.79656 9.30302 8.34846 8.67739 9.15217C8.05176 9.95588 7.70999 10.962 7.70999 12C7.70999 13.038 8.05176 14.0441 8.67739 14.8478C9.30302 15.6515 10.174 16.2034 11.1429 16.41V19.2H1.71429V15.6ZM12.8571 19.2V16.41C13.826 16.2034 14.697 15.6515 15.3226 14.8478C15.9482 14.0441 16.29 13.038 16.29 12C16.29 10.962 15.9482 9.95588 15.3226 9.15217C14.697 8.34846 13.826 7.79656 12.8571 7.59V4.8H22.2857V8.4H19.7143C19.487 8.4 19.2689 8.49482 19.1082 8.6636C18.9474 8.83239 18.8571 9.06131 18.8571 9.3V14.7C18.8571 14.9387 18.9474 15.1676 19.1082 15.3364C19.2689 15.5052 19.487 15.6 19.7143 15.6H22.2857V19.2H12.8571ZM22.2857 13.8H20.5714V10.2H22.2857V13.8Z" fill=""/>
</svg>
