<svg width="40" height="40" viewBox="0 0 40 40" fill="none" xmlns="http://www.w3.org/2000/svg">
<path d="M13.501 20C11.5885 20.0595 10.0243 20.8214 8.80833 22.2857H6.43542C5.46736 22.2857 4.65278 22.0446 3.99167 21.5625C3.33056 21.0804 3 20.375 3 19.4464C3 15.2441 3.73194 13.1429 5.19583 13.1429C5.26666 13.1429 5.52343 13.2679 5.96614 13.5179C6.40885 13.7679 6.98437 14.0208 7.6927 14.2768C8.40104 14.5327 9.10347 14.6607 9.8 14.6607C10.591 14.6607 11.376 14.5238 12.1552 14.25C12.0962 14.6905 12.0667 15.0833 12.0667 15.4286C12.0667 17.0833 12.5448 18.6071 13.501 20ZM32.4667 31.375C32.4667 32.8036 32.0358 33.9315 31.174 34.7589C30.3122 35.5863 29.167 36 27.7385 36H12.2615C10.833 36 9.68785 35.5863 8.82605 34.7589C7.96423 33.9315 7.53333 32.8036 7.53333 31.375C7.53333 30.744 7.55399 30.128 7.59531 29.5268C7.63664 28.9256 7.71928 28.2768 7.84324 27.5804C7.96719 26.8839 8.12362 26.2381 8.3125 25.6428C8.50138 25.0476 8.7552 24.4673 9.07395 23.9018C9.3927 23.3363 9.75868 22.8542 10.1719 22.4553C10.5851 22.0565 11.0898 21.7381 11.6859 21.5C12.2821 21.2619 12.9403 21.1429 13.6604 21.1429C13.7785 21.1429 14.0323 21.2708 14.4219 21.5268C14.8115 21.7827 15.2424 22.0685 15.7146 22.3839C16.1868 22.6994 16.8184 22.9851 17.6094 23.2411C18.4003 23.497 19.1972 23.625 20 23.625C20.8028 23.625 21.5997 23.497 22.3906 23.2411C23.1816 22.9851 23.8132 22.6994 24.2854 22.3839C24.7576 22.0685 25.1885 21.7827 25.5781 21.5268C25.9677 21.2708 26.2215 21.1429 26.3396 21.1429C27.0597 21.1429 27.7179 21.2619 28.3141 21.5C28.9102 21.7381 29.4149 22.0565 29.8281 22.4553C30.2413 22.8542 30.6073 23.3363 30.926 23.9018C31.2448 24.4673 31.4986 25.0476 31.6875 25.6428C31.8764 26.2381 32.0328 26.8839 32.1568 27.5804C32.2807 28.2768 32.3634 28.9256 32.4047 29.5268C32.446 30.128 32.4667 30.744 32.4667 31.375ZM14.3333 8.57144C14.3333 9.83334 13.8906 10.9107 13.0052 11.8036C12.1198 12.6964 11.0514 13.1429 9.8 13.1429C8.54862 13.1429 7.48021 12.6964 6.5948 11.8036C5.70938 10.9107 5.26667 9.83334 5.26667 8.57144C5.26667 7.30953 5.70938 6.23214 6.5948 5.33929C7.48021 4.44643 8.54862 4 9.8 4C11.0514 4 12.1198 4.44643 13.0052 5.33929C13.8906 6.23214 14.3333 7.30953 14.3333 8.57144ZM26.8 15.4286C26.8 17.3214 26.1359 18.9375 24.8078 20.2768C23.4797 21.6161 21.8771 22.2857 20 22.2857C18.1229 22.2857 16.5203 21.6161 15.1922 20.2768C13.8641 18.9375 13.2 17.3214 13.2 15.4286C13.2 13.5357 13.8641 11.9197 15.1922 10.5804C16.5203 9.24108 18.1229 8.57144 20 8.57144C21.8771 8.57144 23.4797 9.24108 24.8078 10.5804C26.1359 11.9197 26.8 13.5357 26.8 15.4286ZM37 19.4464C37 20.375 36.6694 21.0804 36.0083 21.5625C35.3472 22.0446 34.5326 22.2857 33.5646 22.2857H31.1917C29.9757 20.8214 28.4115 20.0595 26.499 20C27.4552 18.6071 27.9333 17.0833 27.9333 15.4286C27.9333 15.0833 27.9038 14.6905 27.8448 14.25C28.624 14.5238 29.409 14.6607 30.2 14.6607C30.8965 14.6607 31.599 14.5327 32.3073 14.2768C33.0156 14.0208 33.5912 13.7679 34.0339 13.5179C34.4766 13.2679 34.7333 13.1429 34.8042 13.1429C36.2681 13.1429 37 15.2441 37 19.4464ZM34.7333 8.57144C34.7333 9.83334 34.2906 10.9107 33.4052 11.8036C32.5198 12.6964 31.4514 13.1429 30.2 13.1429C28.9486 13.1429 27.8802 12.6964 26.9948 11.8036C26.1094 10.9107 25.6667 9.83334 25.6667 8.57144C25.6667 7.30953 26.1094 6.23214 26.9948 5.33929C27.8802 4.44643 28.9486 4 30.2 4C31.4514 4 32.5198 4.44643 33.4052 5.33929C34.2906 6.23214 34.7333 7.30953 34.7333 8.57144Z" fill="white"/>
</svg>
