<svg width="58" height="57" viewBox="0 0 58 57" fill="none" xmlns="http://www.w3.org/2000/svg">
<g clip-path="url(#clip0_191_2075)">
<path d="M10.6667 24.9508L10.6665 28.2829C10.6664 28.2823 10.6665 28.2834 10.6665 28.2829C10.6666 28.2835 10.6666 28.2851 10.6665 28.2857L10.6661 31.6172C10.6655 32.5361 11.0401 33.37 11.6432 33.9732C12.2475 34.5774 13.0813 34.9521 14.0003 34.9514C13.9997 35.8703 14.3742 36.7042 14.9774 37.3073C15.5805 37.9105 16.4142 38.285 17.3333 38.2844C18.224 38.2844 19.0608 37.938 19.6904 37.3084C20.3205 36.6782 20.6675 35.841 20.6664 34.9514L20.6666 29.9507L37.3331 29.9507L37.3329 34.9518C37.3334 35.8697 37.708 36.7035 38.3112 37.3066C38.9143 37.9098 39.748 38.2843 40.666 38.2849C42.5046 38.2855 44.0006 36.7895 44 34.9509C45.8386 34.9515 47.3335 33.4565 47.3329 31.618L47.3332 28.2858C47.3332 28.2854 47.3333 28.2864 47.3332 28.2858C47.333 28.2852 47.333 28.2836 47.3332 28.283L47.3335 24.9515C47.3335 23.1109 45.8376 21.6166 43.9994 21.6176C44.0006 19.7796 42.5044 18.2832 40.6664 18.2844C39.7757 18.2844 38.939 18.6309 38.3094 19.2604C37.6793 19.8906 37.3323 20.7278 37.3334 21.6175L37.3331 26.6181L20.6666 26.6181L20.6669 21.617C20.6657 19.7813 19.1702 18.2846 17.3333 18.2846C15.4947 18.284 13.9992 19.7796 13.9998 21.6182C12.1612 21.6171 10.6661 23.1122 10.6667 24.9508ZM40.6664 34.9514L40.6664 29.9507L40.667 31.6177C40.667 31.6215 40.6682 31.6253 40.6682 31.6293L40.6688 34.9514L40.6664 34.9514ZM44.0023 31.6178L44 31.6178L44.0001 29.9508L44.0023 31.6178ZM40.6666 24.9502L40.6666 21.6171L40.6671 24.9444C40.667 24.9464 40.6666 24.9483 40.6666 24.9502ZM17.3357 34.9514L17.3333 34.9514L17.3333 29.9507L17.3357 34.9514Z" fill="white"/>
</g>
<defs>
<clipPath id="clip0_191_2075">
<rect width="40" height="40" fill="white" transform="translate(29) rotate(45)"/>
</clipPath>
</defs>
</svg>
