<svg width="25" height="24" viewBox="0 0 25 24" fill="none" xmlns="http://www.w3.org/2000/svg">
<path d="M20.66 5.00004C19.6 3.93725 18.1948 3.28858 16.6984 3.17121C15.2019 3.05384 13.7128 3.47551 12.5 4.36004C11.2277 3.41368 9.64402 2.98455 8.06795 3.15908C6.49188 3.33361 5.04047 4.09882 4.006 5.30063C2.97154 6.50244 2.43085 8.05156 2.49283 9.63606C2.55481 11.2206 3.21485 12.7227 4.34003 13.84L10.55 20.06C11.07 20.5718 11.7704 20.8587 12.5 20.8587C13.2296 20.8587 13.93 20.5718 14.45 20.06L20.66 13.84C21.8276 12.6653 22.483 11.0763 22.483 9.42004C22.483 7.76377 21.8276 6.17478 20.66 5.00004ZM19.25 12.46L13.04 18.67C12.9694 18.7414 12.8853 18.798 12.7926 18.8367C12.6999 18.8753 12.6005 18.8953 12.5 18.8953C12.3996 18.8953 12.3002 18.8753 12.2075 18.8367C12.1148 18.798 12.0307 18.7414 11.96 18.67L5.75003 12.43C4.96579 11.6284 4.52664 10.5515 4.52664 9.43004C4.52664 8.30858 4.96579 7.2317 5.75003 6.43004C6.54919 5.64103 7.627 5.19861 8.75003 5.19861C9.87306 5.19861 10.9509 5.64103 11.75 6.43004C11.843 6.52377 11.9536 6.59817 12.0755 6.64893C12.1973 6.6997 12.328 6.72584 12.46 6.72584C12.592 6.72584 12.7227 6.6997 12.8446 6.64893C12.9665 6.59817 13.0771 6.52377 13.17 6.43004C13.9692 5.64103 15.047 5.19861 16.17 5.19861C17.2931 5.19861 18.3709 5.64103 19.17 6.43004C19.9651 7.22119 20.4186 8.29223 20.4336 9.41373C20.4485 10.5352 20.0237 11.618 19.25 12.43V12.46Z" fill="white"/>
</svg>
