<svg width="24" height="24" viewBox="0 0 24 24" fill="none" xmlns="http://www.w3.org/2000/svg">
<path d="M19.125 20.25H11.625C11.4 20.25 11.25 20.1 11.25 19.875C11.25 19.65 11.4 19.5 11.625 19.5H19.125C19.35 19.5 19.5 19.65 19.5 19.875C19.5 20.1 19.275 20.25 19.125 20.25Z" fill="#0D74CF"/>
<path d="M3.15 22.5H20.85C21.75 22.5 22.5 21.75 22.5 20.775V10.65C22.5 9.75 21.75 9 20.775 9H3.15C2.25 9 1.5 9.75 1.5 10.65V20.85C1.5 21.75 2.25 22.5 3.15 22.5ZM10.9466 21C10.7233 21 10.5 20.8548 10.5 20.5645V19.1855C10.5 18.9677 10.6489 18.75 10.9466 18.75H19.8034C20.0267 18.75 20.25 18.8952 20.25 19.1855V20.5645C20.25 20.7823 20.0267 21 19.8034 21H10.9466ZM10.875 11.25H19.875C20.0821 11.25 20.25 11.4179 20.25 11.625C20.25 11.8321 20.0821 12 19.875 12H10.875C10.6679 12 10.5 11.8321 10.5 11.625C10.5 11.4179 10.6679 11.25 10.875 11.25ZM10.5 13.875C10.5 13.6679 10.6679 13.5 10.875 13.5H19.875C20.0821 13.5 20.25 13.6679 20.25 13.875C20.25 14.0821 20.0821 14.25 19.875 14.25H10.875C10.6679 14.25 10.5 14.0821 10.5 13.875ZM10.5 16.125C10.5 15.9179 10.6679 15.75 10.875 15.75H19.875C20.0821 15.75 20.25 15.9179 20.25 16.125C20.25 16.3321 20.0821 16.5 19.875 16.5H10.875C10.6679 16.5 10.5 16.3321 10.5 16.125ZM3.01364 17.3974C3.00472 17.3504 3 17.3012 3 17.25V11.25C3 10.875 3.29268 10.5 3.73171 10.5H8.2683C8.63415 10.5 9 10.8 9 11.25V17.2326C8.46195 16.4845 7.66807 15.9486 6.75411 15.7667C7.17703 15.6033 7.47676 15.2164 7.5315 14.7016L7.56682 14.2402C7.83427 14.2213 8.04548 13.9886 8.04548 13.7045C8.04548 13.4498 7.87575 13.2365 7.64797 13.1814L7.67835 12.7841C7.75177 11.9403 7.09096 11.25 6.35669 11.25H5.62241C4.81471 11.25 4.22729 11.9403 4.30072 12.7841L4.33115 13.1814C4.10335 13.2365 3.93357 13.4498 3.93357 13.7045C3.93357 13.9887 4.14485 14.2213 4.41223 14.2402L4.44758 14.7016C4.50529 15.184 4.83518 15.6189 5.29462 15.783C4.34781 15.9936 3.53606 16.5854 3.01364 17.3974ZM9 17.25C9 18.294 9 18.0443 9 17.2326V17.25Z" fill="#0D74CF"/>
</svg>
