<svg width="24" height="24" viewBox="0 0 24 24" fill="none" xmlns="http://www.w3.org/2000/svg">
<path d="M19.4631 1H4.5369C3.86407 1 3.2188 1.26188 2.74304 1.72802C2.26728 2.19417 2 2.82639 2 3.48562V20.5144C2 21.1736 2.26728 21.8058 2.74304 22.272C3.2188 22.7381 3.86407 23 4.5369 23H19.4631C20.1359 23 20.7812 22.7381 21.257 22.272C21.7327 21.8058 22 21.1736 22 20.5144V3.48562C22 2.82639 21.7327 2.19417 21.257 1.72802C20.7812 1.26188 20.1359 1 19.4631 1ZM12.6919 16.4515C12.6919 16.6313 12.619 16.8037 12.4892 16.9309C12.3595 17.058 12.1835 17.1294 12 17.1294C11.8165 17.1294 11.6405 17.058 11.5108 16.9309C11.381 16.8037 11.3081 16.6313 11.3081 16.4515V10.2465C11.3081 10.0667 11.381 9.89429 11.5108 9.76716C11.6405 9.64003 11.8165 9.56861 12 9.56861C12.1835 9.56861 12.3595 9.64003 12.4892 9.76716C12.619 9.89429 12.6919 10.0667 12.6919 10.2465V16.4515ZM12.9041 7.9507C12.8942 8.00826 12.8772 8.06442 12.8533 8.11791C12.8287 8.17295 12.7994 8.22587 12.7657 8.27609C12.7338 8.32625 12.695 8.37187 12.6504 8.41167C12.5214 8.53731 12.3573 8.62279 12.1789 8.65735C12.0005 8.69191 11.8156 8.67402 11.6475 8.60592C11.4794 8.53782 11.3356 8.42256 11.2342 8.27462C11.1328 8.12668 11.0783 7.95266 11.0775 7.77445C11.0768 7.7152 11.083 7.65606 11.0959 7.59819C11.1058 7.53917 11.1228 7.48151 11.1467 7.42646C11.1713 7.37287 11.2007 7.32146 11.2343 7.2728C11.2673 7.22204 11.306 7.17505 11.3496 7.1327C11.5263 6.97155 11.7586 6.88195 12 6.88195C12.2414 6.88195 12.4737 6.97155 12.6504 7.1327C12.694 7.17505 12.7327 7.22204 12.7657 7.2728C12.7993 7.32146 12.8287 7.37287 12.8533 7.42646C12.8772 7.48151 12.8942 7.53917 12.9041 7.59819C12.9287 7.71446 12.9287 7.83443 12.9041 7.9507Z" fill="#161616"/>
</svg>
