<svg width="24" height="24" viewBox="0 0 24 24" fill="none" xmlns="http://www.w3.org/2000/svg">
<path d="M22.9163 15.0488C23.13 14.8388 23.25 14.5538 23.25 14.25C23.25 13.6312 22.7437 13.125 22.125 13.125H20.8575L19.8337 11.0812C19.77 10.9537 19.6425 10.875 19.5 10.875H12C11.8575 10.875 11.73 10.9537 11.6663 11.0812L10.6425 13.125H9.375C9.07125 13.125 8.78625 13.245 8.58375 13.4512C8.37 13.6612 8.25 13.9462 8.25 14.25C8.25 14.8688 8.75625 15.375 9.375 15.375H9.5175L9.04125 16.3312C9.015 16.3837 9 16.44 9 16.5V20.25C9 20.4563 9.16875 20.625 9.375 20.625H10.125V21.75C10.125 21.9563 10.2938 22.125 10.5 22.125H12.75C12.9563 22.125 13.125 21.9563 13.125 21.75V20.625H18.375V21.75C18.375 21.9563 18.5437 22.125 18.75 22.125H21C21.2063 22.125 21.375 21.9563 21.375 21.75V20.625H22.125C22.3313 20.625 22.5 20.4563 22.5 20.25V16.5C22.5 16.44 22.485 16.3837 22.4587 16.3312L21.9825 15.375H22.125C22.4288 15.375 22.7137 15.255 22.9163 15.0488ZM9.8925 14.625H9.375C9.16875 14.625 9 14.4562 9 14.25C9 14.1488 9.0375 14.0588 9.11625 13.9838C9.18375 13.9125 9.27375 13.875 9.375 13.875H10.2675L9.8925 14.625ZM12.375 21.375H10.875V20.625H12.375V21.375ZM11.625 19.125C11.0062 19.125 10.5 18.6188 10.5 18C10.5 17.3812 11.0062 16.875 11.625 16.875C12.2438 16.875 12.75 17.3812 12.75 18C12.75 18.6188 12.2438 19.125 11.625 19.125ZM17.625 19.125H13.875C13.6687 19.125 13.5 18.9563 13.5 18.75C13.5 18.5437 13.6687 18.375 13.875 18.375H17.625C17.8313 18.375 18 18.5437 18 18.75C18 18.9563 17.8313 19.125 17.625 19.125ZM17.625 17.625H13.875C13.6687 17.625 13.5 17.4563 13.5 17.25C13.5 17.0437 13.6687 16.875 13.875 16.875H17.625C17.8313 16.875 18 17.0437 18 17.25C18 17.4563 17.8313 17.625 17.625 17.625ZM10.7325 14.625L12.2325 11.625H19.2675L20.7675 14.625H10.7325ZM20.625 21.375H19.125V20.625H20.625V21.375ZM19.875 19.125C19.2563 19.125 18.75 18.6188 18.75 18C18.75 17.3812 19.2563 16.875 19.875 16.875C20.4937 16.875 21 17.3812 21 18C21 18.6188 20.4937 19.125 19.875 19.125ZM21.6075 14.625L21.2325 13.875H22.125C22.3313 13.875 22.5 14.0438 22.5 14.25C22.5 14.3512 22.4625 14.4412 22.3837 14.5162C22.3162 14.5875 22.2262 14.625 22.125 14.625H21.6075Z" fill="#0D74CF"/>
<path d="M9 6C9 3.72375 7.15125 1.875 4.875 1.875C2.59875 1.875 0.75 3.72375 0.75 6C0.75 7.8825 2.02125 9.4725 3.75 9.96375V19.875H2.625C2.41875 19.875 2.25 20.0438 2.25 20.25V21.75C2.25 21.9562 2.41875 22.125 2.625 22.125H7.125C7.33125 22.125 7.5 21.9562 7.5 21.75V20.25C7.5 20.0438 7.33125 19.875 7.125 19.875H6V9.96375C7.72875 9.4725 9 7.8825 9 6ZM6.75 20.625V21.375H3V20.625H6.75ZM4.875 9.375C3.015 9.375 1.5 7.86 1.5 6C1.5 4.14 3.015 2.625 4.875 2.625C6.735 2.625 8.25 4.14 8.25 6C8.25 7.86 6.735 9.375 4.875 9.375Z" fill="#0D74CF"/>
<path d="M5.4375 3.75H4.125C3.91875 3.75 3.75 3.91875 3.75 4.125V7.875C3.75 8.08125 3.91875 8.25 4.125 8.25C4.33125 8.25 4.5 8.08125 4.5 7.875V6.375H5.4375C6.16125 6.375 6.75 5.78625 6.75 5.0625C6.75 4.33875 6.16125 3.75 5.4375 3.75ZM5.4375 5.625H4.5V4.5H5.4375C5.74875 4.5 6 4.75125 6 5.0625C6 5.37375 5.74875 5.625 5.4375 5.625Z" fill="#0D74CF"/>
</svg>
