<svg width="" height="" viewBox="0 0 24 24" fill="none" xmlns="http://www.w3.org/2000/svg">
<path fill-rule="evenodd" clip-rule="evenodd" d="M19.2 12.9C19.2 12.6613 19.1052 12.4325 18.9364 12.2637C18.7676 12.0949 18.5387 12 18.3 12H5.7C5.46131 12 5.23239 12.0949 5.0636 12.2637C4.89482 12.4325 4.8 12.6613 4.8 12.9C4.8 13.1387 4.89482 13.3675 5.0636 13.5363C5.23239 13.7051 5.46131 13.8 5.7 13.8H18.3C18.5387 13.8 18.7676 13.7051 18.9364 13.5363C19.1052 13.3675 19.2 13.1387 19.2 12.9ZM6.6945 10.2H17.0085C16.2858 7.7277 14.061 6.6 11.8515 6.6C9.64291 6.6 7.4172 7.7277 6.6945 10.2ZM21 12V13.8C21 14.7945 20.046 15.6 19.0515 15.6H4.6515C3.6579 15.6 3 14.7945 3 13.8V12C3 11.1 3.5877 10.2 4.8459 10.2C5.5218 7.0977 7.5 5.17267 11.1 4.85317V3H12.9V4.85317C15.6 5.17267 18.1812 7.0977 18.8571 10.2C20.2791 10.2 21 11.0694 21 12ZM18.3 17.4C18.0613 17.4 17.8324 17.4949 17.6636 17.6637C17.4948 17.8325 17.4 18.0613 17.4 18.3V20.1C17.4 20.3387 17.4948 20.5675 17.6636 20.7363C17.8324 20.9051 18.0613 21 18.3 21C18.5387 21 18.7676 20.9051 18.9364 20.7363C19.1052 20.5675 19.2 20.3387 19.2 20.1V18.3C19.2 18.0613 19.1052 17.8325 18.9364 17.6637C18.7676 17.4949 18.5387 17.4 18.3 17.4ZM5.7 17.4C5.46131 17.4 5.23239 17.4949 5.0636 17.6637C4.89482 17.8325 4.8 18.0613 4.8 18.3V20.1C4.8 20.3387 4.89482 20.5675 5.0636 20.7363C5.23239 20.9051 5.46131 21 5.7 21C5.93869 21 6.16761 20.9051 6.3364 20.7363C6.50518 20.5675 6.6 20.3387 6.6 20.1V18.3C6.6 18.0613 6.50518 17.8325 6.3364 17.6637C6.16761 17.4949 5.93869 17.4 5.7 17.4ZM12.9 18.3V20.1C12.9 20.3387 12.8052 20.5675 12.6364 20.7363C12.4676 20.9051 12.2387 21 12 21C11.7613 21 11.5324 20.9051 11.3636 20.7363C11.1948 20.5675 11.1 20.3387 11.1 20.1V18.3C11.1 18.0613 11.1948 17.8325 11.3636 17.6637C11.5324 17.4949 11.7613 17.4 12 17.4C12.2387 17.4 12.4676 17.4949 12.6364 17.6637C12.8052 17.8325 12.9 18.0613 12.9 18.3Z" fill=""/>
</svg>
