<svg width="40" height="40" viewBox="0 0 40 40" fill="none" xmlns="http://www.w3.org/2000/svg">
<g clip-path="url(#clip0_191_2152)">
<path d="M25.8169 16.05C25.5502 12.0167 24.1002 8.06666 21.4169 4.78333C20.7335 3.94999 19.4835 3.94999 18.8002 4.78333C16.1374 7.97364 14.5251 11.9085 14.1835 16.05C16.3169 17.1833 18.2835 18.65 20.0002 20.4333C21.7169 18.6667 23.6835 17.2 25.8169 16.05ZM14.9835 20.4667C14.7502 20.3 14.4835 20.15 14.2335 19.9833C14.4835 20.1667 14.7502 20.3 14.9835 20.4667ZM20.0002 25.75C16.7502 20.8 11.4335 17.3667 5.28352 16.7667C4.21685 16.6667 3.33352 17.55 3.43352 18.6167C4.18352 26.6167 9.51685 33.25 16.7335 35.8333C17.7835 36.2167 18.8835 36.5 20.0169 36.6833C21.1502 36.4833 22.2335 36.2 23.3002 35.8333C30.5168 33.25 35.8502 26.6333 36.6002 18.6167C36.6233 18.3679 36.5913 18.1172 36.5065 17.8822C36.4217 17.6473 36.2862 17.4339 36.1096 17.2573C35.9329 17.0807 35.7196 16.9451 35.4846 16.8603C35.2497 16.7755 34.9989 16.7435 34.7502 16.7667C28.5669 17.3667 23.2502 20.8 20.0002 25.75Z" fill="white"/>
</g>
<defs>
<clipPath id="clip0_191_2152">
<rect width="40" height="40" fill="white"/>
</clipPath>
</defs>
</svg>
