<svg width="26" height="25" viewBox="0 0 26 25" fill="none" xmlns="http://www.w3.org/2000/svg">
<path d="M1.1333 11.0667L5.9333 15.4667L4.59997 21.6C4.46664 22.4 4.7333 23.2 5.39997 23.6C5.66664 23.8667 6.06664 24 6.46664 24C6.7333 24 6.99997 24 7.26664 23.8667C7.26664 23.8667 7.39997 23.8667 7.39997 23.7333L12.8666 20.6667L18.3333 23.7333C18.3333 23.7333 18.4666 23.7333 18.4666 23.8667C19.1333 24.1333 19.9333 24.1333 20.4666 23.7333C21.1333 23.3333 21.4 22.5333 21.2666 21.7333L19.9333 15.6C20.4666 15.2 21.2666 14.4 22.0666 13.6L24.6 11.3333L24.7333 11.2C25.2666 10.6667 25.4 9.86667 25.1333 9.2C24.8666 8.53333 24.3333 8 23.5333 7.86667H23.4L17.1333 7.2L14.6 1.46667C14.6 1.46667 14.6 1.33333 14.4666 1.33333C14.3333 0.4 13.6666 0 13 0C12.3333 0 11.6666 0.4 11.2666 1.06667C11.2666 1.06667 11.2666 1.2 11.1333 1.2L8.59997 6.93333L2.3333 7.6H2.19997C1.5333 7.73333 0.866637 8.26667 0.599971 8.93333C0.466637 9.73333 0.59997 10.5333 1.1333 11.0667Z" />
</svg>
