<svg width="40" height="40" viewBox="0 0 40 40" fill="none" xmlns="http://www.w3.org/2000/svg">
<g clip-path="url(#clip0_191_2103)">
<path d="M10.183 9.26668C12.1663 9.50001 13.5663 10.2333 14.9997 11.6667L16.6663 13.3333L11.2497 18.75C11.7663 18.95 12.183 19.2 12.533 19.4C13.1497 19.7833 13.5163 20 14.4497 20C15.383 20 15.7497 19.7833 16.3663 19.4C17.133 18.95 18.1663 18.3333 20.0163 18.3333C21.8663 18.3333 22.8997 18.95 23.6497 19.4C24.2663 19.7667 24.6497 20 25.5663 20C26.483 20 26.8663 19.7833 27.483 19.4C27.683 19.2833 27.9163 19.15 28.1663 19.0167L17.4663 8.33335C15.3663 6.23335 13.3997 5.33335 10.4997 5.08335C9.33301 4.98335 8.33301 5.93335 8.33301 7.10001V7.25001C8.33301 8.30001 9.14967 9.13335 10.183 9.26668ZM35.583 31.5167C35.2997 31.4167 35.0497 31.2667 34.7497 31.0667C33.9997 30.6167 32.9663 30 31.1163 30C29.2663 30 28.233 30.6167 27.483 31.0667C26.8663 31.45 26.483 31.6667 25.5663 31.6667C24.6497 31.6667 24.2663 31.4333 23.6497 31.0667C22.8997 30.6167 21.8663 30 20.0163 30C18.1663 30 17.133 30.6167 16.3663 31.0667C15.7497 31.45 15.383 31.6667 14.4497 31.6667C13.5163 31.6667 13.1497 31.45 12.533 31.0667C11.783 30.6167 10.7497 30 8.89967 30C7.04967 30 6.01634 30.6167 5.24967 31.0667C4.94967 31.25 4.69967 31.4 4.41634 31.5167C3.78301 31.7333 3.33301 32.2667 3.33301 32.9333V33.1333C3.33301 34.25 4.43301 35.0167 5.49967 34.65C6.11634 34.4333 6.58301 34.15 6.98301 33.9167C7.59967 33.55 7.98301 33.3333 8.89967 33.3333C9.81634 33.3333 10.1997 33.55 10.8163 33.9333C11.5663 34.3833 12.5997 35 14.4497 35C16.2997 35 17.333 34.3833 18.0997 33.9333C18.7163 33.55 19.083 33.3333 20.0163 33.3333C20.933 33.3333 21.3163 33.5667 21.933 33.9333C22.683 34.3833 23.7163 35 25.5663 35C27.4163 35 28.433 34.3833 29.1997 33.9333C29.8163 33.55 30.183 33.3333 31.1163 33.3333C32.033 33.3333 32.4163 33.5667 33.033 33.9333C33.4163 34.1667 33.883 34.45 34.4997 34.6667C35.5497 35.0333 36.6663 34.2667 36.6663 33.15V32.95C36.6663 32.2667 36.2163 31.7333 35.583 31.5167ZM5.18301 27.25C5.96634 27.0333 6.53301 26.7 6.99967 26.4333C7.61634 26.05 7.99967 25.8333 8.91634 25.8333C9.83301 25.8333 10.2163 26.0667 10.833 26.4333C11.583 26.8833 12.6163 27.5 14.4663 27.5C16.3163 27.5 17.3497 26.8833 18.0997 26.4333C18.7163 26.05 19.083 25.8333 20.0163 25.8333C20.933 25.8333 21.3163 26.0667 21.933 26.4333C22.683 26.8833 23.7163 27.5 25.5663 27.5C27.4163 27.5 28.4497 26.8833 29.1997 26.4333C29.8163 26.05 30.183 25.8333 31.1163 25.8333C32.033 25.8333 32.4163 26.0667 33.033 26.4333C33.4163 26.6667 33.8663 26.9333 34.4497 27.15C34.6945 27.2384 34.9569 27.2668 35.215 27.233C35.473 27.1992 35.7193 27.104 35.933 26.9555C36.1468 26.807 36.3219 26.6095 36.4437 26.3795C36.5654 26.1495 36.6304 25.8936 36.633 25.6333V25.4333C36.633 24.7667 36.183 24.2333 35.5663 24C35.283 23.9 35.033 23.75 34.7163 23.5667C33.9663 23.1167 32.933 22.5 31.083 22.5C29.233 22.5 28.1997 23.1167 27.4497 23.5667C26.833 23.95 26.4497 24.1667 25.533 24.1667C24.6163 24.1667 24.233 23.9333 23.6163 23.5667C22.8663 23.1167 21.833 22.5 19.983 22.5C18.133 22.5 17.0997 23.1167 16.3497 23.5667C15.733 23.95 15.3663 24.1667 14.433 24.1667C13.5163 24.1667 13.133 23.9333 12.5163 23.5667C11.7663 23.1167 10.733 22.5 8.88301 22.5C7.03301 22.5 5.99967 23.1167 5.24967 23.5667C4.94967 23.75 4.69967 23.9 4.41634 24.0167C3.78301 24.2333 3.33301 24.7667 3.33301 25.4333V25.8167C3.33301 26.7833 4.24967 27.5167 5.18301 27.25Z" fill="white"/>
<path d="M27.4997 13.3333C29.8009 13.3333 31.6663 11.4679 31.6663 9.16667C31.6663 6.86548 29.8009 5 27.4997 5C25.1985 5 23.333 6.86548 23.333 9.16667C23.333 11.4679 25.1985 13.3333 27.4997 13.3333Z" fill="white"/>
</g>
<defs>
<clipPath id="clip0_191_2103">
<rect width="40" height="40" fill="white"/>
</clipPath>
</defs>
</svg>
