<svg width="40" height="40" viewBox="0 0 40 40" fill="none" xmlns="http://www.w3.org/2000/svg">
<path d="M15.833 5.83319C10.3102 5.83319 5.83301 10.3104 5.83301 15.8332C5.83301 21.356 10.3102 25.8332 15.833 25.8332H24.1666L31.6666 33.3332C32.1938 33.8604 32.5102 34.1668 33.177 34.1668C33.385 34.1668 33.6458 34.1668 33.9062 33.9064C34.1662 33.646 34.1662 33.3856 34.1662 33.1772C34.1662 32.5104 33.8034 32.1372 33.333 31.6668L25.833 24.1668V15.8332C25.833 10.3104 21.3558 5.83319 15.833 5.83319ZM24.1666 19.1668V24.1668H19.1666L24.1666 19.1668ZM8.33301 25.8332C7.66997 25.8332 7.03408 26.0966 6.56524 26.5654C6.0964 27.0343 5.83301 27.6702 5.83301 28.3332C5.83301 28.9962 6.0964 29.6321 6.56524 30.1009C7.03408 30.5698 7.66997 30.8332 8.33301 30.8332C8.99605 30.8332 9.63193 30.5698 10.1008 30.1009C10.5696 29.6321 10.833 28.9962 10.833 28.3332C10.833 27.6702 10.5696 27.0343 10.1008 26.5654C9.63193 26.0966 8.99605 25.8332 8.33301 25.8332Z" fill="white"/>
</svg>
