<svg width="24" height="24" viewBox="0 0 24 24" fill="none" xmlns="http://www.w3.org/2000/svg">
<path d="M12 13C11.1 13 10.3 12.7 9.6 12.3C7.9 11.2 7 8.9 7 6C7 3.2 9.2 1 12 1C14.8 1 17 3.2 17 6C17 8.9 16.1 11.2 14.4 12.3C13.7 12.7 12.9 13 12 13ZM12 3C10.3 3 9 4.3 9 6C9 8.2 9.6 9.9 10.7 10.6C11.5 11.1 12.5 11.1 13.3 10.6C14.4 9.9 15 8.2 15 6C15 4.3 13.7 3 12 3Z" fill="white"/>
<path d="M12 23C9.7 23 2 22.7 2 19C2 15.3 4.7 14 7.7 13.1C7.9 13 8.7 12.7 9 11.2L11 11.6C10.7 13.4 9.7 14.5 8.3 15C5.3 16 4 16.8 4 19C4 20.1 8.2 21 12 21C15.8 21 20 20.1 20 19C20 16.8 18.7 16 15.7 14.9C14.3 14.4 13.4 13.3 13 11.5L15 11.1C15.3 12.6 16.1 12.9 16.4 13C19.4 14 22.1 15.2 22.1 18.9C22 19.9 21.3 23 12 23Z" fill="white"/>
</svg>
