<svg width="24" height="24" viewBox="0 0 24 24" fill="none" xmlns="http://www.w3.org/2000/svg">
<path d="M17.26 12.66C17.52 12.92 17.66 13.28 17.66 13.66C17.66 14.02 17.52 14.38 17.26 14.64C17 14.9 16.64 15.06 16.26 15.06C15.9 15.06 15.54 14.9 15.26 14.64C15 14.38 14.86 14.02 14.86 13.66C14.86 13.28 15.02 12.94 15.26 12.66C15.52 12.4 15.88 12.26 16.26 12.26C16.64 12.24 17 12.4 17.26 12.66ZM21 9.54V18.38C21 19.28 20.28 20 19.38 20H4.9C3.86 20 3 19.14 3 18.1V6.4C3 5.08 4.08 4 5.4 4H16.46C17.56 4 18.4 4.9 18.4 6V7.2H18.76C20 7.2 21 8.3 21 9.54ZM4.48 6.4C4.48 6.84 4.84 7.2 5.28 7.2H16.8V5.96C16.8 5.76 16.64 5.6 16.44 5.6H5.28C4.84 5.6 4.48 5.96 4.48 6.4ZM19.4 9.54C19.4 9.2 19.12 8.8 18.76 8.8H4.92C4.74 8.8 4.6 9.04 4.6 9.22V18.1C4.6 18.26 4.74 18.4 4.9 18.4H19.38C19.4 18.4 19.4 18.38 19.4 18.38V9.54Z" fill="#0D74CF"/>
</svg>
