<svg width="25" height="24" viewBox="0 0 25 24" fill="none" xmlns="http://www.w3.org/2000/svg">
<path d="M18.2002 4H6.2002C4.0002 4 2.2002 5.8 2.2002 8V16C2.2002 18.2 4.0002 20 6.2002 20H18.2002C20.4002 20 22.2002 18.2 22.2002 16V8C22.2002 5.8 20.4002 4 18.2002 4ZM20.2002 14H18.2002C17.1002 14 16.2002 13.1 16.2002 12C16.2002 10.9 17.1002 10 18.2002 10H20.2002V14ZM18.2002 8C16.0002 8 14.2002 9.8 14.2002 12C14.2002 14.2 16.0002 16 18.2002 16H20.2002C20.2002 17.1 19.3002 18 18.2002 18H6.2002C5.1002 18 4.2002 17.1 4.2002 16V8C4.2002 6.9 5.1002 6 6.2002 6H18.2002C19.3002 6 20.2002 6.9 20.2002 8H18.2002Z" fill=""/>
</svg>
