<svg width="" height="" viewBox="0 0 24 24" fill="none" xmlns="http://www.w3.org/2000/svg">
<path d="M13.305 3.99749C13.2254 3.91486 13.1278 3.85161 13.0199 3.8126C12.912 3.7736 12.7966 3.75987 12.6825 3.77249C13.5549 5.04923 14.0938 6.52407 14.25 8.06249C14.2721 9.67784 13.653 11.2361 12.5284 12.3959C11.4037 13.5556 9.86527 14.2224 8.25 14.25C7.36603 14.2487 6.49397 14.0461 5.7 13.6575C5.43031 14.3238 5.27807 15.0317 5.25 15.75C5.25 17.7391 6.04018 19.6468 7.4467 21.0533C8.85322 22.4598 10.7609 23.25 12.75 23.25C14.7391 23.25 16.6468 22.4598 18.0533 21.0533C19.4598 19.6468 20.25 17.7391 20.25 15.75C20.25 11.85 14.0175 4.79249 13.305 3.99749Z" fill=""/>
<path d="M12.7502 8.04754C12.7502 5.67004 9.22525 1.47004 8.82025 0.997543C8.74984 0.915208 8.66243 0.849105 8.56403 0.80378C8.46563 0.758455 8.35858 0.734985 8.25025 0.734985C8.14191 0.734985 8.03486 0.758455 7.93646 0.80378C7.83807 0.849105 7.75066 0.915208 7.68025 0.997543C7.27525 1.50004 3.75025 5.67004 3.75025 8.04754C3.73631 8.65195 3.84171 9.25318 4.06043 9.8168C4.27915 10.3804 4.60688 10.8954 5.02487 11.3322C5.44286 11.769 5.94289 12.119 6.49635 12.3623C7.0498 12.6056 7.64581 12.7374 8.25025 12.75C8.85468 12.7374 9.45069 12.6056 10.0041 12.3623C10.5576 12.119 11.0576 11.769 11.4756 11.3322C11.8936 10.8954 12.2213 10.3804 12.4401 9.8168C12.6588 9.25318 12.7642 8.65195 12.7502 8.04754Z" fill=""/>
</svg>
