<svg width="24" height="24" viewBox="0 0 24 24" fill="none" xmlns="http://www.w3.org/2000/svg">
<path d="M16.0127 17.85C16.0127 18.3375 16.4252 18.75 16.9127 18.75C17.4002 18.75 17.8127 18.3375 17.8127 17.85V16.95H16.0127V17.85Z" fill="#161616"/>
<path d="M16.9571 11.7895L15.0266 11.5146L12.2454 15.0539C12.18 15.157 12.0818 15.1913 11.9836 15.1913C11.8855 15.1913 11.7873 15.157 11.7219 15.0539L8.9407 11.5146L7.01023 11.7895C5.27607 12.0988 4 13.3702 4 14.8477V21.9949C9.30061 23.335 14.6994 23.335 20 21.9949V14.8477C19.9673 13.3702 18.6912 12.0644 16.9571 11.7895ZM17.7096 17.3561C17.7096 18.2151 17.0552 18.9024 16.2372 18.9024C15.4192 18.9024 14.7648 18.2151 14.7648 17.3561V16.1878C14.7648 15.9816 14.9284 15.8442 15.092 15.8442H17.3497C17.546 15.8442 17.6769 16.016 17.6769 16.1878V17.3561H17.7096ZM11.9509 10.0715C13.6524 10.0715 15.2556 6.56658 15.2556 4.43616C15.2556 2.54627 13.7832 1 11.9509 1C10.1186 1 8.64622 2.54627 8.64622 4.47052C8.64622 6.56658 10.2495 10.0715 11.9509 10.0715Z" fill="#161616"/>
</svg>
